<mxfile host="app.diagrams.net" modified="2020-09-18T04:13:40.646Z" agent="5.0 (Windows NT 10.0; Win64; x64) AppleWebKit/537.36 (KHTML, like Gecko) Chrome/85.0.4183.102 Safari/537.36" etag="se-7J2b3Jgtg5emhgPjK" version="13.7.3" type="github">
  <diagram id="Xf1krp--SoIZXwKtG77f" name="Page-1">
    <mxGraphModel dx="1002" dy="1699" grid="1" gridSize="10" guides="1" tooltips="1" connect="1" arrows="1" fold="1" page="1" pageScale="1" pageWidth="827" pageHeight="1169" math="0" shadow="0">
      <root>
        <mxCell id="0" />
        <mxCell id="1" parent="0" />
        <mxCell id="apDJ_KpteNmNt5EzHD-o-2" value="NATURAL" style="shape=cylinder3;whiteSpace=wrap;html=1;boundedLbl=1;backgroundOutline=1;size=15;fillColor=#fff2cc;strokeColor=#d6b656;" vertex="1" parent="1">
          <mxGeometry x="160" y="40" width="130" height="60" as="geometry" />
        </mxCell>
        <mxCell id="apDJ_KpteNmNt5EzHD-o-4" value="ORACLE CLOUD" style="ellipse;shape=cloud;whiteSpace=wrap;html=1;align=right;strokeColor=#6c8ebf;fillColor=#99CCFF;" vertex="1" parent="1">
          <mxGeometry x="290" y="-10" width="370" height="200" as="geometry" />
        </mxCell>
        <mxCell id="apDJ_KpteNmNt5EzHD-o-5" value="PREMIUM" style="shape=cylinder3;whiteSpace=wrap;html=1;boundedLbl=1;backgroundOutline=1;size=15;fillColor=#fff2cc;strokeColor=#d6b656;" vertex="1" parent="1">
          <mxGeometry x="364" y="40" width="100" height="50" as="geometry" />
        </mxCell>
        <mxCell id="apDJ_KpteNmNt5EzHD-o-6" value="INSIS" style="shape=cylinder3;whiteSpace=wrap;html=1;boundedLbl=1;backgroundOutline=1;size=15;fillColor=#fff2cc;strokeColor=#d6b656;" vertex="1" parent="1">
          <mxGeometry x="446" y="100" width="84" height="60" as="geometry" />
        </mxCell>
        <mxCell id="apDJ_KpteNmNt5EzHD-o-8" value="OSB SOA BUS (FISICO)" style="shape=cylinder3;whiteSpace=wrap;html=1;boundedLbl=1;backgroundOutline=1;size=15;rotation=90;fillColor=#d5e8d4;strokeColor=#82b366;" vertex="1" parent="1">
          <mxGeometry x="395" y="115" width="80" height="360" as="geometry" />
        </mxCell>
        <mxCell id="apDJ_KpteNmNt5EzHD-o-9" value="&lt;b&gt;SIGMA&lt;/b&gt;" style="shape=cube;whiteSpace=wrap;html=1;boundedLbl=1;backgroundOutline=1;darkOpacity=0.05;darkOpacity2=0.1;fillColor=#f8cecc;strokeColor=#b85450;" vertex="1" parent="1">
          <mxGeometry x="384" y="360" width="156" height="100" as="geometry" />
        </mxCell>
        <mxCell id="apDJ_KpteNmNt5EzHD-o-14" value="" style="html=1;shadow=0;dashed=0;align=center;verticalAlign=middle;shape=mxgraph.arrows2.arrow;dy=0.6;dx=40;direction=south;notch=0;fillColor=#fff2cc;strokeColor=#d6b656;" vertex="1" parent="1">
          <mxGeometry x="410" y="170" width="30" height="80" as="geometry" />
        </mxCell>
        <mxCell id="apDJ_KpteNmNt5EzHD-o-17" value="" style="html=1;shadow=0;dashed=0;align=center;verticalAlign=middle;shape=mxgraph.arrows2.arrow;dy=0.6;dx=40;direction=north;notch=0;fillColor=#fff2cc;strokeColor=#d6b656;" vertex="1" parent="1">
          <mxGeometry x="500" y="170" width="30" height="80" as="geometry" />
        </mxCell>
        <mxCell id="apDJ_KpteNmNt5EzHD-o-18" value="" style="html=1;shadow=0;dashed=0;align=center;verticalAlign=middle;shape=mxgraph.arrows2.bendDoubleArrow;dy=15;dx=38;arrowHead=55;rounded=0;rotation=-90;fillColor=#f8cecc;strokeColor=#b85450;" vertex="1" parent="1">
          <mxGeometry x="290" y="330" width="100" height="100" as="geometry" />
        </mxCell>
        <mxCell id="apDJ_KpteNmNt5EzHD-o-19" value="&lt;b&gt;MUD&lt;/b&gt;" style="shape=cylinder3;whiteSpace=wrap;html=1;boundedLbl=1;backgroundOutline=1;size=15;fillColor=#fff2cc;strokeColor=#d6b656;" vertex="1" parent="1">
          <mxGeometry x="50" y="150" width="150" height="80" as="geometry" />
        </mxCell>
        <mxCell id="apDJ_KpteNmNt5EzHD-o-20" value="" style="html=1;shadow=0;dashed=0;align=center;verticalAlign=middle;shape=mxgraph.arrows2.bendDoubleArrow;dy=15;dx=38;arrowHead=55;rounded=1;rotation=-90;fillColor=#fff2cc;strokeColor=#d6b656;" vertex="1" parent="1">
          <mxGeometry x="137.5" y="212.5" width="100" height="135" as="geometry" />
        </mxCell>
        <mxCell id="apDJ_KpteNmNt5EzHD-o-21" value="" style="shape=flexArrow;endArrow=classic;startArrow=classic;html=1;fillColor=#fff2cc;strokeColor=#d6b656;entryX=0.855;entryY=1;entryDx=0;entryDy=-4.35;entryPerimeter=0;exitX=0.024;exitY=0.885;exitDx=0;exitDy=0;exitPerimeter=0;" edge="1" parent="1" source="apDJ_KpteNmNt5EzHD-o-8" target="apDJ_KpteNmNt5EzHD-o-2">
          <mxGeometry width="50" height="50" relative="1" as="geometry">
            <mxPoint x="260" y="260" as="sourcePoint" />
            <mxPoint x="430" y="240" as="targetPoint" />
            <Array as="points">
              <mxPoint x="271" y="170" />
            </Array>
          </mxGeometry>
        </mxCell>
      </root>
    </mxGraphModel>
  </diagram>
</mxfile>
